<svg height="512pt" viewBox="0 0 512 512" width="512pt" xmlns="http://www.w3.org/2000/svg" xmlns:xlink="http://www.w3.org/1999/xlink"><linearGradient id="a" gradientUnits="userSpaceOnUse" x1="0" x2="512" y1="256" y2="256"><stop offset="0" stop-color="#80d8ff"/><stop offset="1" stop-color="#ea80fc"/></linearGradient><path d="m413.332031 197.332031h78.667969c11.046875 0 20-8.953125 20-20v-157.332031c0-11.046875-8.953125-20-20-20h-78.667969c-11.046875 0-20 8.953125-20 20v58.667969h-274.664062v-58.667969c0-11.046875-8.953125-20-20-20h-78.667969c-11.046875 0-20 8.953125-20 20v157.332031c0 11.046875 8.953125 20 20 20h78.667969c11.046875 0 20-8.953125 20-20v-58.667969h18.609375v77.84375c0 36.933594 25.324218 68.0625 59.554687 76.945313v82.429687c-34.214843 8.871094-59.554687 40.011719-59.554687 76.960938v39.15625h-117.277344c-11.046875 0-20 8.953125-20 20s8.953125 20 20 20h472c11.046875 0 20-8.953125 20-20s-8.953125-20-20-20h-117.339844v-39.15625c0-36.925781-25.308594-68.050781-59.492187-76.941406v-82.453125c34.183593-8.890625 59.492187-40.015625 59.492187-76.941407v-77.839843h18.671875v58.667969c0 11.042968 8.957031 19.996093 20 19.996093zm-334.664062-40h-38.667969v-117.332031h38.667969zm152.332031 52.953125c0-13.78125 11.214844-25 25-25s25 11.21875 25 25c0 13.785156-11.214844 25-25 25s-25-11.214844-25-25zm44.167969 143.066406h-38.335938v-77.351562h38.335938zm59.492187 79.492188v39.15625h-157.382812v-39.15625c0-21.777344 17.714844-39.492188 39.492187-39.492188h78.398438c21.777343 0 39.492187 17.714844 39.492187 39.492188zm0-236.335938c0 13.09375-6.410156 24.710938-16.25 31.902344 1.675782-5.757812 2.589844-11.835937 2.589844-18.125 0-35.839844-29.160156-65-65-65s-65 29.160156-65 65c0 6.3125.921875 12.40625 2.605469 18.179688-9.886719-7.1875-16.328125-18.832032-16.328125-31.957032v-77.839843h157.382812zm98.671875-156.507812h38.667969v117.332031h-38.667969zm0 0" fill="url(#a)"/></svg>